<svg height="512" viewBox="0 0 64 64" width="512" xmlns="http://www.w3.org/2000/svg"><g id="cultivation"><path d="m15 18h-6a1 1 0 0 0 -1 1v6a1 1 0 0 0 1 1h6a1 1 0 0 0 1-1v-6a1 1 0 0 0 -1-1zm-1 6h-4v-4h4z"/><path d="m22 18a4 4 0 1 0 4 4 4 4 0 0 0 -4-4zm0 6a2 2 0 1 1 2-2 2 2 0 0 1 -2 2z"/><path d="m32.031 17.969a4 4 0 1 0 4 4 4 4 0 0 0 -4-4zm0 6a2 2 0 1 1 2-2 2 2 0 0 1 -2 2z"/><path d="m22 28a4 4 0 1 0 4 4 4 4 0 0 0 -4-4zm0 6a2 2 0 1 1 2-2 2 2 0 0 1 -2 2z"/><path d="m32.031 27.969a4 4 0 1 0 4 4 4 4 0 0 0 -4-4zm0 6a2 2 0 1 1 2-2 2 2 0 0 1 -2 2z"/><path d="m15 28h-6a1 1 0 0 0 -1 1v6a1 1 0 0 0 1 1h6a1 1 0 0 0 1-1v-6a1 1 0 0 0 -1-1zm-1 6h-4v-4h4z"/><path d="m22 38a4 4 0 1 0 4 4 4 4 0 0 0 -4-4zm0 6a2 2 0 1 1 2-2 2 2 0 0 1 -2 2z"/><path d="m32.031 37.969a4 4 0 1 0 4 4 4 4 0 0 0 -4-4zm0 6a2 2 0 1 1 2-2 2 2 0 0 1 -2 2z"/><path d="m15 38h-6a1 1 0 0 0 -1 1v6a1 1 0 0 0 1 1h6a1 1 0 0 0 1-1v-6a1 1 0 0 0 -1-1zm-1 6h-4v-4h4z"/><path d="m61 42h-4a6.97 6.97 0 0 0 -5 2.11v-6.11h3a7.008 7.008 0 0 0 7-7 1 1 0 0 0 -1-1h-4a6.97 6.97 0 0 0 -5 2.11v-2.25c2.31-.63 4-3.42 4-6.86 0-3.13-2.87-5.64-4-6.51v-10.49a1 1 0 0 0 -1-1h-5v-2a1 1 0 0 0 -1-1h-6a1 1 0 0 0 -1 1v2h-22v-2a1 1 0 0 0 -1-1h-6a1 1 0 0 0 -1 1v2h-5a1 1 0 0 0 -1 1v43a1 1 0 0 0 1 1h47v2h-5a1 1 0 0 0 -.79.38 1.022 1.022 0 0 0 -.18.86l2 8a1 1 0 0 0 .97.76h8a1 1 0 0 0 .97-.76l2-8a1.022 1.022 0 0 0 -.18-.86 1 1 0 0 0 -.79-.38h-5v-2h3a7.008 7.008 0 0 0 7-7 1 1 0 0 0 -1-1zm-4-10h2.9a5.009 5.009 0 0 1 -4.9 4h-2.9a5.009 5.009 0 0 1 4.9-4zm-17-28h4v4a2 2 0 0 1 -4 0zm-30 0h4v4a2 2 0 0 1 -4 0zm-6 3h4v1a4 4 0 0 0 8 0v-1h22v1a4 4 0 0 0 8 0v-1h4v7h-46zm0 41v-32h46v.49c-1.13.87-4 3.38-4 6.51 0 3.44 1.69 6.23 4 6.86v8.25a6.97 6.97 0 0 0 -5-2.11h-4a1 1 0 0 0 -1 1 7.008 7.008 0 0 0 7 7h3v4zm45.9-6h-2.9a5.009 5.009 0 0 1 -4.9-4h2.9a5.009 5.009 0 0 1 4.9 4zm5.82 12-1.5 6h-6.44l-1.5-6zm-4.72-26c-1.63 0-3-2.29-3-5 0-2.06 2-3.94 3-4.75 1 .81 3 2.69 3 4.75 0 2.71-1.37 5-3 5zm4 20h-2.9a5.009 5.009 0 0 1 4.9-4h2.9a5.009 5.009 0 0 1 -4.9 4z"/></g></svg>