<svg id="Capa_1" enable-background="new 0 0 509.332 509.332" height="512" viewBox="0 0 509.332 509.332" width="512" xmlns="http://www.w3.org/2000/svg"><path d="m460.329 202.99h-24.02c-4.537-18.769-11.925-36.588-22.026-53.121l17.001-17c9.064-9.065 9.064-23.814 0-32.879l-29.505-29.504c-4.392-4.392-10.229-6.81-16.44-6.81-6.21 0-12.048 2.418-16.439 6.81l-17.001 17.001c-12.42-7.582-25.668-13.654-39.473-18.139l-39.965-60.232c-3.777-5.691-10.11-9.099-16.94-9.116-.018 0-.033 0-.051 0-6.811 0-13.139 3.375-16.934 9.033l-40.135 59.848c-14.362 4.53-28.111 10.758-40.968 18.605l-17.001-17.001c-4.392-4.392-10.229-6.81-16.44-6.81s-12.049 2.418-16.44 6.81l-29.502 29.504c-4.392 4.391-6.811 10.23-6.811 16.44s2.419 12.049 6.81 16.439l17 17c-10.102 16.532-17.489 34.351-22.026 53.121h-24.019c-12.82 0-23.25 10.43-23.25 23.25v41.726c0 12.82 10.43 23.25 23.25 23.25h24.019c4.537 18.77 11.925 36.589 22.026 53.121l-16.999 17c-4.393 4.392-6.811 10.23-6.811 16.44s2.418 12.049 6.81 16.44l29.504 29.504c9.066 9.065 23.814 9.065 32.881 0l16.999-17c16.533 10.101 34.352 17.489 53.121 22.026v24.019c0 12.82 10.43 23.25 23.25 23.25h13.362v25.817c0 4.142 3.357 7.5 7.5 7.5s7.5-3.358 7.5-7.5v-25.817h13.363c12.819 0 23.249-10.43 23.249-23.25v-24.019c18.769-4.537 36.591-11.927 53.121-22.026l17 17c9.065 9.065 23.813 9.066 32.88 0l29.505-29.504c9.064-9.065 9.064-23.815 0-32.88l-17.001-17c10.102-16.532 17.489-34.351 22.026-53.121h24.02c12.819 0 23.249-10.43 23.249-23.25v-41.725c0-12.82-10.43-23.25-23.249-23.25zm-342.031 44.113c0-27.211 8.046-53.329 22.748-75.43-3.658 15.086-5.061 30.745-4.098 46.632 2.045 33.738 15.138 66.467 36.867 92.159 2.674 3.164 7.406 3.559 10.57.883 3.162-2.675 3.558-7.407.883-10.57-13.796-16.312-23.737-35.766-29.081-56.473l90.979 78.104v31.102l-39.846-31.67c-3.243-2.576-7.961-2.039-10.538 1.205-2.577 3.243-2.038 7.96 1.204 10.538l49.18 39.088v10.591c-71.719-3.907-128.868-63.482-128.868-136.159zm104.4-187.52 24.468 17.609v56.575l-47.1-40.436zm87.514 33.558-48.046 41.248v-56.703l25.42-18.644zm47.401 128.179-95.448 81.941v-64.667l88.49-75.968c6.379 18.759 8.784 38.719 6.958 58.694zm-165.961-115.443 55.514 47.659v64.666l-30.163-25.896c-3.144-2.699-7.879-2.337-10.576.805-2.698 3.143-2.338 7.877.805 10.576l39.935 34.284v64.666l-94.964-81.526c-.108-1.237-.206-2.475-.281-3.716-1.144-18.867 1.395-37.38 7.411-54.83l23.578 20.241c1.415 1.215 3.153 1.81 4.882 1.81 2.112 0 4.211-.887 5.694-2.615 2.698-3.143 2.338-7.878-.805-10.576l-27.366-23.493c3.014-6.337 6.512-12.495 10.493-18.431zm70.514 217.153 91.367-78.438c-7.77 29.69-24.889 56.081-49.154 75.367l-42.213 33.551zm0-104.206v-64.666l56.403-48.423 15.876 23.927c3.898 5.875 7.324 11.988 10.282 18.284zm17.118-172.295-17.118 12.555v-38.354zm-32.118-23.432v35.614l-16.109-11.593zm221.412 244.868c0 4.549-3.7 8.25-8.249 8.25h-30.021c-3.556 0-6.622 2.496-7.344 5.977-4.377 21.108-12.619 40.988-24.499 59.087-1.95 2.972-1.547 6.905.967 9.418l21.245 21.245c3.217 3.217 3.217 8.451.001 11.667l-29.506 29.504c-1.558 1.558-3.629 2.416-5.833 2.416-2.203 0-4.274-.858-5.832-2.416l-21.245-21.245c-2.513-2.514-6.445-2.918-9.419-.967-18.099 11.878-37.979 20.121-59.088 24.499-3.48.722-5.977 3.789-5.977 7.344v30.021c0 4.549-3.7 8.25-8.249 8.25h-41.726c-4.549 0-8.25-3.701-8.25-8.25v-30.021c0-3.555-2.496-6.622-5.977-7.344-21.108-4.377-40.988-12.62-59.088-24.499-2.974-1.95-6.905-1.545-9.419.967l-21.244 21.245c-1.558 1.558-3.629 2.416-5.833 2.416s-4.275-.858-5.833-2.416l-29.505-29.505c-1.558-1.558-2.416-3.629-2.416-5.833 0-2.203.858-4.275 2.417-5.833l21.244-21.245c2.514-2.514 2.917-6.447.967-9.418-11.88-18.1-20.122-37.979-24.499-59.087-.722-3.481-3.788-5.977-7.344-5.977h-30.019c-4.549 0-8.25-3.701-8.25-8.25v-41.725c0-4.549 3.701-8.25 8.25-8.25h30.021c3.556 0 6.622-2.496 7.344-5.977 4.377-21.107 12.619-40.987 24.499-59.087 1.95-2.972 1.547-6.905-.967-9.418l-21.245-21.246c-1.558-1.558-2.416-3.629-2.416-5.833s.858-4.275 2.417-5.833l29.504-29.504c1.558-1.558 3.63-2.417 5.833-2.417 2.204 0 4.275.858 5.833 2.417l21.244 21.245c2.514 2.514 6.445 2.917 9.419.967 7.353-4.825 15.057-9.042 23.031-12.664-.281.464-.509.948-.68 1.447l-19.49 29.062c-2.273 3.39-4.4 6.846-6.389 10.36-34.118 28.859-53.664 70.898-53.664 115.594 0 83.465 67.903 151.369 151.368 151.369 37.976 0 74.294-14.125 102.264-39.773 27.792-25.485 44.998-60.121 48.449-97.526.38-4.125-2.655-7.777-6.78-8.157-4.124-.376-7.776 2.655-8.157 6.779-3.107 33.688-18.609 64.886-43.649 87.849-23.348 21.41-53.156 33.898-84.626 35.616v-10.587l51.547-40.969c30.947-24.598 51.39-59.649 57.559-98.698 3.182-20.137 2.415-40.431-2.062-59.885 10.83 16.733 17.937 35.727 20.611 55.786.503 3.77 3.724 6.51 7.425 6.51.33 0 .665-.022 1.001-.067 4.105-.547 6.99-4.319 6.443-8.425-4.873-36.542-22.926-69.927-50.875-94.176-2.124-3.87-4.409-7.669-6.871-11.379l-20.079-30.262c7.595 3.518 14.946 7.58 21.979 12.196 2.974 1.952 6.906 1.545 9.419-.967l21.245-21.245c1.558-1.558 3.629-2.417 5.832-2.417 2.204 0 4.275.858 5.833 2.417l29.505 29.504c1.559 1.558 2.416 3.63 2.416 5.833s-.857 4.275-2.415 5.833l-21.246 21.245c-2.513 2.514-2.917 6.446-.967 9.418 11.88 18.1 20.122 37.98 24.499 59.087.722 3.481 3.788 5.977 7.344 5.977h30.021c4.549 0 8.249 3.701 8.249 8.25v41.726z"/></svg>