<?xml version="1.0" encoding="UTF-8" standalone="no"?>
<svg
   xmlns:dc="http://purl.org/dc/elements/1.1/"
   xmlns:cc="http://creativecommons.org/ns#"
   xmlns:rdf="http://www.w3.org/1999/02/22-rdf-syntax-ns#"
   xmlns:svg="http://www.w3.org/2000/svg"
   xmlns="http://www.w3.org/2000/svg"
   xmlns:sodipodi="http://sodipodi.sourceforge.net/DTD/sodipodi-0.dtd"
   xmlns:inkscape="http://www.inkscape.org/namespaces/inkscape"
   width="500"
   height="500"
   viewBox="0 0 132.29167 132.29167"
   version="1.1"
   id="svg8"
   sodipodi:docname="icon plant.svg"
   inkscape:version="1.0.2-2 (e86c870879, 2021-01-15)">
  <defs
     id="defs2" />
  <sodipodi:namedview
     id="base"
     pagecolor="#ffffff"
     bordercolor="#666666"
     borderopacity="1.0"
     inkscape:pageopacity="0.0"
     inkscape:pageshadow="2"
     inkscape:zoom="0.5"
     inkscape:cx="958.29"
     inkscape:cy="501.35637"
     inkscape:document-units="px"
     inkscape:current-layer="layer2"
     inkscape:document-rotation="0"
     showgrid="false"
     inkscape:window-width="1366"
     inkscape:window-height="705"
     inkscape:window-x="-8"
     inkscape:window-y="-8"
     inkscape:window-maximized="1"
     units="px"
     width="40in" />
  <metadata
     id="metadata5">
    <rdf:RDF>
      <cc:Work
         rdf:about="">
        <dc:format>image/svg+xml</dc:format>
        <dc:type
           rdf:resource="http://purl.org/dc/dcmitype/StillImage" />
        <dc:title></dc:title>
      </cc:Work>
    </rdf:RDF>
  </metadata>
  <g
     inkscape:label="Layer 1"
     inkscape:groupmode="layer"
     id="layer1">
    <rect
       style="fill:none;fill-opacity:1;stroke:none;stroke-width:1.64359;stroke-miterlimit:4;stroke-dasharray:none;stroke-opacity:1"
       id="rect932"
       width="38.356411"
       height="38.356415"
       x="85.38134"
       y="125.10245"
       rx="10.621232"
       ry="11.086397" />
  </g>
  <g
     inkscape:groupmode="layer"
     id="layer2"
     inkscape:label="Layer 2">
    <path
       id="path24"
       style="fill:#000000;stroke-width:0.226899"
       d="m 103.60482,6.1536774 c -1.61376,-0.0204 -6.961439,0.4036857 -9.636251,0.7952994 -7.334404,1.0738784 -13.646959,3.2020822 -18.116246,6.1086872 -2.441026,1.587473 -5.814433,5.028279 -7.113772,7.255271 -3.083912,5.285774 -3.675279,12.406212 -1.582474,19.069267 l 0.359444,1.14335 -1.013212,2.032953 c -0.556884,1.118325 -1.399283,3.02379 -1.873601,4.233489 L 63.765089,48.990829 62.852705,47.47181 C 61.715473,45.579438 60.538249,43.973942 58.856681,42.020188 L 57.552343,40.5044 57.409177,38.009545 C 57.234726,34.98647 56.830155,33.378049 55.633174,30.936444 53.525815,26.637936 49.55296,23.784279 43.978556,22.565466 41.772593,22.083225 35.402429,22.011949 32.634566,22.438623 29.169714,22.972791 26.051,23.6438 25.546811,23.965804 c -0.846102,0.540561 -0.835686,1.215174 0.05529,3.631716 2.086272,5.657869 5.520056,11.514673 8.751534,14.928509 3.294325,3.480254 6.446297,5.119722 10.192516,5.300363 3.424749,0.16527 6.500972,-0.917009 9.870484,-3.473928 l 1.361265,-1.032766 1.091324,1.20351 c 1.451789,1.60145 3.608967,4.860902 4.700223,7.102415 l 0.884737,1.815042 -0.434224,1.92886 c -0.238723,1.060719 -0.561101,2.822745 -0.715625,3.914716 l -0.281231,1.984154 H 44.718685 c -18.087235,0 -17.356137,-0.05951 -18.000751,1.483279 -0.243619,0.583239 -0.322581,1.923793 -0.322037,5.487396 8.26e-4,4.312587 0.03938,4.77847 0.45376,5.458117 0.597566,0.980022 1.222686,1.185623 3.607311,1.185623 h 1.990683 l 2.112664,11.742446 c 5.126676,28.486854 5.104603,28.365694 5.547577,28.855174 0.424505,0.46918 0.474898,0.47 21.53814,0.47 -0.0034,-0.0272 -0.0102,-0.051 -0.0136,-0.0765 -0.0204,-0.15031 -3.280195,-2.58059 -3.27387,-2.73069 0.0034,-0.14113 0.0068,-0.28294 0.0102,-0.4245 -15.253292,0.0463 -15.897684,4.4e-4 -15.969403,-0.22614 -0.109907,-0.34683 -6.713479,-37.200347 -6.707185,-37.440804 0.0058,-0.293133 51.962786,-0.208457 51.962786,0.08468 0,0.03809 -0.509616,2.86073 -0.652169,3.683746 0.157788,0.017 0.137385,0.714128 0.346352,0.74351 0.254706,0.03605 0.311496,0.106439 0.567528,0.131603 0.233622,0.02381 0.516621,0.0033 0.751399,3.4e-5 1.19188,-0.017 1.076532,1.133968 1.471989,-0.706102 0.11392,-0.654686 0.698077,-3.919103 0.697703,-3.937466 -0.0025,-0.09352 0.993284,-0.16901 2.213526,-0.16901 2.438068,0 2.967716,-0.203357 3.568253,-1.36453 0.478227,-0.926428 0.492207,-9.627674 0.017,-10.76664 -0.642097,-1.537382 -0.0204,-1.483245 -17.024913,-1.483245 H 64.284669 v -0.536718 c 0,-2.15694 1.641917,-8.708115 3.106356,-12.396248 0.876745,-2.208323 2.204786,-5.12404 2.467211,-5.414215 0.04081,-0.04523 0.946866,0.292113 2.011836,0.749767 3.569349,1.533064 5.891082,2.012584 9.886766,2.03462 3.110471,0.017 3.698369,-0.04013 5.088947,-0.505807 2.001633,-0.670533 3.080953,-1.218371 4.786428,-2.426574 6.915326,-4.898864 11.653287,-16.238202 13.194757,-31.579379 0.34686,-3.4509045 0.34499,-3.7094525 -0.0204,-4.2659962 -0.21355,-0.3257787 -0.55525,-0.6567594 -0.75949,-0.7351094 -0.0595,-0.0238 -0.21356,-0.03605 -0.44402,-0.03911 z m -1.96467,3.1568192 c 0.2979,-8.5e-4 0.24213,0.7489494 -0.39845,5.3312394 -2.174004,15.552967 -7.939345,25.669475 -15.75633,27.648427 h -0.0017 c -2.866239,0.725588 -5.897646,0.615239 -9.060554,-0.328499 -1.77869,-0.530801 -4.877497,-1.772977 -4.877497,-1.954906 0,-0.236342 2.16585,-3.37089 3.486953,-5.04501 1.787497,-2.265148 4.790135,-5.340116 7.177194,-7.351237 1.060752,-0.893749 2.053051,-1.777092 2.205364,-1.964669 0.732526,-0.901945 -0.06563,-2.268786 -1.323858,-2.268786 -0.760751,0 -1.534934,0.567868 -4.911673,3.59754 -2.133985,1.914782 -5.021818,5.168997 -7.029199,7.922098 -0.888817,1.219017 -1.412444,1.762809 -1.493004,1.553195 -0.709197,-1.854115 -0.723922,-7.644676 -0.0238,-10.236417 2.276369,-8.43355 10.303987,-13.84297 23.719092,-15.982431 C 95.66762,9.8619053 100.60681,9.3136246 101.6407,9.3105306 Z M 38.193558,25.196927 c 8.659078,-0.0136 13.99092,3.352628 15.662015,9.886766 0.595991,2.332276 0.589529,2.520431 -0.06359,2.041115 -3.694825,-2.712531 -9.106813,-5.654944 -10.40067,-5.654944 -0.786215,0 -1.249466,0.392703 -1.455611,1.234422 -0.196556,0.802986 0.552874,1.583528 2.156582,2.244403 2.034368,0.838421 5.025352,2.61473 7.160939,4.253008 1.099179,0.843179 2.03513,1.648307 2.08012,1.78899 0.11528,0.360703 -1.99116,1.818783 -4.010627,2.777858 -1.528455,0.726064 -1.935015,0.818459 -3.865903,0.878241 -2.486564,0.07753 -3.796802,-0.294492 -5.893997,-1.676807 C 35.9294,40.575439 31.499182,34.151688 28.914922,27.532433 l -0.460263,-1.17753 1.182376,-0.245524 c 2.412856,-0.500366 6.244576,-0.909256 8.556372,-0.912418 z m -8.623055,39.247741 h 32.106305 32.106325 v 3.631717 3.630084 H 61.676808 29.570503 v -3.630084 z"
       sodipodi:nodetypes="sssscccccccccsssccssccccccccsscssccscsccscscsccccsccscscsccscscsssssccsssssssscsssssccsssscccccccssccccccccc" />
    <ellipse
       style="fill:none;fill-opacity:1;stroke:#000000;stroke-width:3.43026;stroke-miterlimit:4;stroke-dasharray:none;stroke-opacity:1"
       id="path48"
       cx="79.793633"
       cy="103.30552"
       rx="23.493179"
       ry="24.066187" />
    <rect
       style="fill:#000000;fill-opacity:1;fill-rule:evenodd;stroke:#000000;stroke-width:1.37468;stroke-miterlimit:4;stroke-dasharray:none;stroke-opacity:1"
       id="rect26-1"
       width="2.4244459"
       height="32.088245"
       x="101.65065"
       y="-96.31221"
       ry="1.247876"
       transform="matrix(-0.00180852,0.99999836,-0.99999854,-0.00170665,0,0)" />
    <rect
       style="fill:#000000;fill-opacity:1;fill-rule:evenodd;stroke:#000000;stroke-width:1.37468;stroke-miterlimit:4;stroke-dasharray:none;stroke-opacity:1"
       id="rect26"
       width="2.4957526"
       height="31.171448"
       x="78.652252"
       y="88.110161"
       ry="1.2122228" />
  </g>
</svg>
