<?xml version="1.0" encoding="UTF-8" standalone="no"?>
<svg
   xmlns:dc="http://purl.org/dc/elements/1.1/"
   xmlns:cc="http://creativecommons.org/ns#"
   xmlns:rdf="http://www.w3.org/1999/02/22-rdf-syntax-ns#"
   xmlns:svg="http://www.w3.org/2000/svg"
   xmlns="http://www.w3.org/2000/svg"
   xmlns:sodipodi="http://sodipodi.sourceforge.net/DTD/sodipodi-0.dtd"
   xmlns:inkscape="http://www.inkscape.org/namespaces/inkscape"
   width="210mm"
   height="297mm"
   viewBox="0 0 210 297"
   version="1.1"
   id="svg8"
   inkscape:version="1.0.2-2 (e86c870879, 2021-01-15)"
   sodipodi:docname="icon plant.svg">
  <defs
     id="defs2" />
  <sodipodi:namedview
     id="base"
     pagecolor="#ffffff"
     bordercolor="#666666"
     borderopacity="1.0"
     inkscape:pageopacity="0.0"
     inkscape:pageshadow="2"
     inkscape:zoom="0.061871843"
     inkscape:cx="614.70665"
     inkscape:cy="400.19684"
     inkscape:document-units="mm"
     inkscape:current-layer="layer2"
     inkscape:document-rotation="0"
     showgrid="false"
     inkscape:window-width="1366"
     inkscape:window-height="705"
     inkscape:window-x="-8"
     inkscape:window-y="-8"
     inkscape:window-maximized="1" />
  <metadata
     id="metadata5">
    <rdf:RDF>
      <cc:Work
         rdf:about="">
        <dc:format>image/svg+xml</dc:format>
        <dc:type
           rdf:resource="http://purl.org/dc/dcmitype/StillImage" />
        <dc:title></dc:title>
      </cc:Work>
    </rdf:RDF>
  </metadata>
  <g
     inkscape:label="Layer 1"
     inkscape:groupmode="layer"
     id="layer1">
    <path
       style="fill:#000000;stroke-width:0.264583"
       d="m 79.738187,188.4802 c -0.51662,-0.57086 -0.4897,-0.43077 -6.46789,-33.64902 l -2.46414,-13.69219 h -2.32109 c -2.78071,0 -3.50969,-0.23958 -4.20651,-1.38246 -0.48317,-0.79248 -0.52839,-1.33621 -0.52929,-6.3651 -7.4e-4,-4.15547 0.0909,-5.71843 0.37504,-6.39857 0.75167,-1.79898 -0.0997,-1.72887 20.99148,-1.72887 h 19.012533 l 0.32787,-2.3151 c 0.18033,-1.27331 0.55554,-3.32714 0.83381,-4.56406 l 0.50594,-2.24896 -1.03049,-2.11667 c -1.27252,-2.61379 -3.78825,-6.4154 -5.481163,-8.28276 l -1.27247,-1.4036 -1.5875,1.20468 c -3.92913,2.98164 -7.5158,4.24426 -11.50937,4.05165 -4.36852,-0.2107 -8.04538,-2.12256 -11.88688,-6.18084 -3.76818,-3.980829 -7.7714,-10.810119 -10.20413,-17.407749 -1.03904,-2.81789 -1.05085,-3.60406 -0.0636,-4.23441 0.58794,-0.37541 4.22367,-1.15959 8.26402,-1.78244 3.22758,-0.49756 10.65677,-0.41443 13.22917,0.14802 6.50022,1.42127 11.13332,4.74894 13.59063,9.7613 1.39581,2.84714 1.8669,4.72427 2.07031,8.2494 l 0.167843,2.908659 1.52098,1.7672 c 1.96083,2.27825 3.33322,4.15079 4.65934,6.35739 l 1.06438,1.77108 1.00566,-2.56483 c 0.55311,-1.41065 1.53688,-3.63177 2.18616,-4.9358 l 1.18049,-2.37096 -0.41874,-1.333199 c -2.4404,-7.76977 -1.7518,-16.07166 1.84431,-22.23529 1.51512,-2.59687 5.45029,-6.61006 8.29673,-8.46124 5.21158,-3.38933 12.57156,-5.87129 21.12405,-7.123508 3.56471,-0.521931 11.20012,-1.09483 11.75479,-0.881984 0.23853,0.09153 0.63739,0.477312 0.88636,0.857288 0.42518,0.648894 0.42653,0.951134 0.0222,4.975154 -1.79748,17.8892 -7.32243,31.11236 -15.38631,36.824879 -1.98874,1.40884 -3.24747,2.04672 -5.58165,2.82861 -1.62147,0.54316 -2.30734,0.61131 -5.9344,0.58964 -4.65935,-0.0278 -7.36674,-0.58502 -11.52891,-2.37271 -1.24185,-0.53338 -2.29692,-0.92659 -2.3446,-0.87379 -0.30578,0.33861 -1.85569,3.73863 -2.87812,6.3137 -1.70758,4.30066 -3.62129,11.93927 -3.62129,14.45445 v 0.6268 h 17.87251 c 19.8291,0 19.10265,-0.0633 19.85146,1.72887 0.55492,1.32812 0.5393,11.47543 -0.0194,12.55571 -0.70026,1.35416 -1.31845,1.59042 -4.16142,1.59042 -1.42283,0 -2.5843,0.0893 -2.58104,0.19844 0.003,0.10914 -1.86066,10.61641 -4.14204,23.34948 -3.4296,19.14156 -4.2405,23.25414 -4.68226,23.74635 l -0.53428,0.59531 h -24.65141 c -24.603263,0 -24.652393,-0.001 -25.147693,-0.54837 z m 48.734923,-9.50579 c 0.61488,-3.41974 2.37678,-13.19838 3.91532,-21.73032 1.53854,-8.53193 2.79735,-15.64591 2.79735,-15.80885 0,-0.34178 -60.586723,-0.43958 -60.593563,-0.0978 -0.006,0.28005 7.69247,43.25331 7.82069,43.65774 0.0837,0.26384 4.72002,0.3183 22.523773,0.26459 l 22.41845,-0.0676 z m 13.85642,-45.77292 v -4.23333 H 104.89099 67.452447 v 4.23333 4.23334 h 37.438543 37.43854 z M 90.485057,104.85744 c 2.3549,-1.11833 4.81001,-2.81971 4.6758,-3.24031 -0.0523,-0.16386 -1.14378,-1.10243 -2.42555,-2.085719 -2.49024,-1.91035 -5.97731,-3.98143 -8.34953,-4.95906 -1.87008,-0.77069 -2.74473,-1.68063 -2.51547,-2.61694 0.24033,-0.98154 0.78082,-1.44002 1.69755,-1.44002 1.50877,0 7.82033,3.43181 12.12886,6.59486 0.76135,0.55894 0.76807,0.33888 0.0726,-2.38023 -1.9487,-7.61932 -8.16543,-11.54372 -18.26275,-11.5286 -2.69572,0.004 -7.164,0.48054 -9.97762,1.06403 l -1.37866,0.28591 0.53584,1.37246 c 3.01351,7.71864 8.18037,15.209149 12.41718,18.001449 2.44553,1.61176 3.9734,2.04668 6.873,1.95649 2.25155,-0.07 2.72644,-0.17792 4.50871,-1.02432 z m 42.168293,-1.72491 c 9.11528,-2.30757 15.838,-14.104309 18.37312,-32.240409 0.74692,-5.34339 0.8123,-6.21786 0.46483,-6.2168 -1.20566,0.004 -6.9659,0.64405 -9.66524,1.07453 -15.64326,2.49475 -25.00357,8.80174 -27.65801,18.63602 -0.81575,3.02223 -0.79764,9.77559 0.032,11.93763 0.0938,0.24444 0.70343,-0.39044 1.73989,-1.81192 2.34077,-3.21032 5.70779,-7.00535 8.19628,-9.23816 3.93747,-3.53292 4.84139,-4.19484 5.72846,-4.19484 1.4673,0 2.39654,1.59406 1.54236,2.64583 -0.17727,0.21828 -1.33434,1.24952 -2.57127,2.29163 -2.78352,2.34512 -6.28378,5.93065 -8.36817,8.57204 -1.54049,1.95215 -4.06725,5.606379 -4.06725,5.882119 0,0.21232 3.61447,1.66093 5.68855,2.27986 3.68829,1.10063 7.22221,1.22857 10.56444,0.38247 z"
       id="path24" />
    <ellipse
       style="fill:#ffffff;fill-opacity:1;stroke:#000000;stroke-width:4;stroke-miterlimit:4;stroke-dasharray:none;stroke-opacity:1"
       id="path48"
       cx="127.82412"
       cy="177.72893"
       rx="27.395124"
       ry="28.063299" />
  </g>
  <g
     inkscape:groupmode="layer"
     id="layer2"
     inkscape:label="Layer 2">
    <rect
       style="fill:#000000;fill-opacity:1;fill-rule:evenodd;stroke:#000000;stroke-width:1.603;stroke-miterlimit:4;stroke-dasharray:none;stroke-opacity:1"
       id="rect26-1"
       width="2.8271179"
       height="37.417725"
       x="175.73973"
       y="-147.1898"
       ry="1.4551338"
       transform="matrix(-0.00180852,0.99999836,-0.99999854,-0.00170665,0,0)" />
    <rect
       style="fill:#000000;fill-opacity:1;fill-rule:evenodd;stroke:#000000;stroke-width:1.603;stroke-miterlimit:4;stroke-dasharray:none;stroke-opacity:1"
       id="rect26"
       width="2.9102678"
       height="36.348656"
       x="126.49318"
       y="160.00983"
       ry="1.4135588" />
  </g>
</svg>
