<?xml version="1.0" encoding="UTF-8" standalone="no"?>
<svg
   xmlns:dc="http://purl.org/dc/elements/1.1/"
   xmlns:cc="http://creativecommons.org/ns#"
   xmlns:rdf="http://www.w3.org/1999/02/22-rdf-syntax-ns#"
   xmlns:svg="http://www.w3.org/2000/svg"
   xmlns="http://www.w3.org/2000/svg"
   xmlns:sodipodi="http://sodipodi.sourceforge.net/DTD/sodipodi-0.dtd"
   xmlns:inkscape="http://www.inkscape.org/namespaces/inkscape"
   width="210mm"
   height="297mm"
   viewBox="0 0 210 297"
   version="1.1"
   id="svg8"
   sodipodi:docname="icon plant.svg"
   inkscape:version="1.0.2-2 (e86c870879, 2021-01-15)">
  <defs
     id="defs2" />
  <sodipodi:namedview
     id="base"
     pagecolor="#ffffff"
     bordercolor="#666666"
     borderopacity="1.0"
     inkscape:pageopacity="0.0"
     inkscape:pageshadow="2"
     inkscape:zoom="2"
     inkscape:cx="333.89243"
     inkscape:cy="548.56979"
     inkscape:document-units="mm"
     inkscape:current-layer="layer2"
     inkscape:document-rotation="0"
     showgrid="false"
     inkscape:window-width="1366"
     inkscape:window-height="705"
     inkscape:window-x="-8"
     inkscape:window-y="-8"
     inkscape:window-maximized="1" />
  <metadata
     id="metadata5">
    <rdf:RDF>
      <cc:Work
         rdf:about="">
        <dc:format>image/svg+xml</dc:format>
        <dc:type
           rdf:resource="http://purl.org/dc/dcmitype/StillImage" />
        <dc:title></dc:title>
      </cc:Work>
    </rdf:RDF>
  </metadata>
  <g
     inkscape:label="Layer 1"
     inkscape:groupmode="layer"
     id="layer1">
    <rect
       style="fill:none;fill-opacity:1;stroke:none;stroke-width:1.64359;stroke-miterlimit:4;stroke-dasharray:none;stroke-opacity:1"
       id="rect932"
       width="38.356411"
       height="38.356415"
       x="85.38134"
       y="125.10245"
       rx="10.621232"
       ry="11.086397" />
  </g>
  <g
     inkscape:groupmode="layer"
     id="layer2"
     inkscape:label="Layer 2">
    <path
       id="path24"
       style="fill:#000000;stroke-width:0.066723"
       d="m 115.3979,126.42275 c -0.47455,-0.006 -2.04712,0.11871 -2.83369,0.23387 -2.15679,0.31579 -4.01309,0.94162 -5.32735,1.79635 -0.71782,0.46682 -1.70982,1.47864 -2.09191,2.13352 -0.90687,1.55436 -1.08077,3.64823 -0.46535,5.6076 l 0.1057,0.33622 -0.29795,0.59782 c -0.16376,0.32886 -0.41148,0.88919 -0.55096,1.24492 l -0.25396,0.6466 -0.2683,-0.44669 c -0.33442,-0.55648 -0.6806,-1.0286 -1.17509,-1.60313 l -0.38356,-0.44574 -0.0421,-0.73365 c -0.0513,-0.88898 -0.17027,-1.36196 -0.52226,-2.07995 -0.6197,-1.26404 -1.787977,-2.1032 -3.427213,-2.46161 -0.648696,-0.14181 -2.521937,-0.16277 -3.335868,-0.0373 -1.018891,0.15708 -1.935995,0.3544 -2.084259,0.44909 -0.248809,0.15896 -0.245746,0.35734 0.01626,1.06796 0.613499,1.66378 1.623254,3.38606 2.573518,4.38995 0.968745,1.02342 1.895629,1.50553 2.99726,1.55865 1.007098,0.0486 1.911707,-0.26966 2.902562,-1.02156 l 0.4003,-0.3037 0.32092,0.35391 c 0.42692,0.47093 1.06127,1.42942 1.38217,2.08857 l 0.26017,0.53374 -0.12769,0.56721 c -0.0702,0.31192 -0.165,0.83007 -0.21044,1.15118 l -0.0827,0.58347 h -4.794557 c -5.318819,0 -5.103829,-0.0175 -5.293387,0.43618 -0.07164,0.17151 -0.09486,0.56572 -0.0947,1.61365 2.43e-4,1.26818 0.01158,1.40518 0.133435,1.60504 0.175723,0.28819 0.359549,0.34865 1.060783,0.34865 h 0.58539 l 0.62126,3.45304 c 1.507575,8.37699 1.501084,8.34136 1.631347,8.4853 0.124832,0.13797 0.139651,0.13821 6.333609,0.13821 -0.001,-0.008 -0.003,-0.015 -0.004,-0.0225 -0.006,-0.0442 -0.96459,-0.75886 -0.96273,-0.803 10e-4,-0.0415 0.002,-0.0832 0.003,-0.12483 -4.485456,0.0136 -4.674949,1.3e-4 -4.696039,-0.0665 -0.03232,-0.10199 -1.974198,-10.93932 -1.972347,-11.01003 0.0017,-0.0862 15.280426,-0.0613 15.280426,0.0249 0,0.0112 -0.14986,0.84124 -0.19178,1.08326 0.0464,0.005 0.0404,0.21 0.10185,0.21864 0.0749,0.0106 0.0916,0.0313 0.16689,0.0387 0.0687,0.007 0.15192,9.8e-4 0.22096,1e-5 0.35049,-0.005 0.31657,0.33346 0.43286,-0.20764 0.0335,-0.19252 0.20528,-1.15247 0.20517,-1.15787 -7.3e-4,-0.0275 0.29209,-0.0497 0.65092,-0.0497 0.71695,0 0.8727,-0.0598 1.0493,-0.40126 0.14063,-0.27243 0.14474,-2.83116 0.005,-3.16609 -0.18882,-0.45209 -0.006,-0.43617 -5.00643,-0.43617 h -4.50712 v -0.15783 c 0,-0.63428 0.48283,-2.56075 0.91347,-3.6453 0.25782,-0.64939 0.64835,-1.5068 0.72552,-1.59213 0.012,-0.0133 0.27844,0.0859 0.59161,0.22048 1.04962,0.45082 1.73236,0.59183 2.90735,0.59831 0.91468,0.005 1.08756,-0.0118 1.49648,-0.14874 0.58861,-0.19718 0.906,-0.35828 1.40752,-0.71357 2.03356,-1.44058 3.42683,-4.77508 3.88012,-9.28638 0.102,-1.01479 0.10145,-1.09082 -0.006,-1.25448 -0.0628,-0.0958 -0.16328,-0.19313 -0.22334,-0.21617 -0.0175,-0.007 -0.0628,-0.0106 -0.13057,-0.0115 z m -0.57774,0.92831 c 0.0876,-2.5e-4 0.0712,0.22024 -0.11717,1.56773 -0.6393,4.57358 -2.33469,7.54849 -4.63339,8.13043 h -4.9e-4 c -0.84286,0.21337 -1.73429,0.18092 -2.66439,-0.0966 -0.52305,-0.15609 -1.4343,-0.52137 -1.4343,-0.57487 0,-0.0695 0.6369,-0.99126 1.02539,-1.48356 0.52564,-0.6661 1.40861,-1.57034 2.11056,-2.16174 0.31193,-0.26282 0.60373,-0.52258 0.64852,-0.57774 0.21541,-0.26523 -0.0193,-0.66717 -0.3893,-0.66717 -0.22371,0 -0.45137,0.16699 -1.44435,1.05791 -0.62753,0.56307 -1.47674,1.52002 -2.06704,2.32961 -0.26137,0.35847 -0.41535,0.51838 -0.43904,0.45674 -0.20855,-0.54523 -0.21288,-2.24803 -0.007,-3.01017 0.6694,-2.48001 3.03004,-4.07073 6.97495,-4.69987 0.68074,-0.10855 2.13319,-0.26978 2.43722,-0.27069 z m -18.657417,4.67164 c 2.54633,-0.004 4.114237,0.98589 4.605647,2.90735 0.17526,0.68584 0.17336,0.74117 -0.0187,0.60022 -1.086518,-0.79766 -2.677993,-1.66292 -3.058471,-1.66292 -0.231198,0 -0.367424,0.11548 -0.428044,0.363 -0.0578,0.23613 0.162581,0.46566 0.634175,0.66 0.598236,0.24655 1.477779,0.7689 2.10578,1.25066 0.32323,0.24795 0.59846,0.48471 0.61169,0.52608 0.0339,0.10607 -0.58553,0.53484 -1.179384,0.81687 -0.449465,0.21351 -0.56902,0.24068 -1.136826,0.25826 -0.731211,0.0228 -1.116506,-0.0866 -1.733217,-0.49309 -1.06846,-0.70415 -2.371231,-2.59315 -3.131171,-4.53964 l -0.135347,-0.34627 0.347695,-0.0722 c 0.709536,-0.14714 1.83631,-0.26738 2.516128,-0.26831 z m -2.535737,11.54138 h 9.441334 9.44134 v 1.06796 1.06748 h -9.44134 -9.441334 v -1.06748 z"
       sodipodi:nodetypes="sssscccccccccsssccssccccccccsscssccscsccscscsccccsccscscsccscscsssssccsssssssscsssssccsssscccccccssccccccccc" />
    <ellipse
       style="fill:none;fill-opacity:1;stroke:#000000;stroke-width:1.00872;stroke-miterlimit:4;stroke-dasharray:none;stroke-opacity:1"
       id="path48"
       cx="108.39586"
       cy="154.99168"
       rx="6.9085169"
       ry="7.0770183" />
    <rect
       style="fill:#000000;fill-opacity:1;fill-rule:evenodd;stroke:#000000;stroke-width:0.404246;stroke-miterlimit:4;stroke-dasharray:none;stroke-opacity:1"
       id="rect26-1"
       width="0.71294421"
       height="9.4360237"
       x="154.35992"
       y="-113.47861"
       ry="0.36695641"
       transform="matrix(-0.00180852,0.99999836,-0.99999854,-0.00170665,0,0)" />
    <rect
       style="fill:#000000;fill-opacity:1;fill-rule:evenodd;stroke:#000000;stroke-width:0.404246;stroke-miterlimit:4;stroke-dasharray:none;stroke-opacity:1"
       id="rect26"
       width="0.73391294"
       height="9.1664257"
       x="108.06022"
       y="150.52327"
       ry="0.35647205" />
  </g>
</svg>
